<svg id="Layer_1" data-name="Layer 1" xmlns="http://www.w3.org/2000/svg" viewBox="0 0 506.81 61.28"><defs><style>.cls-1{fill:#f7fafc;}.cls-2{fill:#f56565;}</style></defs><path class="cls-1" d="M40.33,60.45H29.23v-24q0-5.14-1.82-7.51a6,6,0,0,0-5.05-2.37,10.1,10.1,0,0,0-4.51,1.13,14.09,14.09,0,0,0-4.1,3.12A12,12,0,0,0,11.1,35.4V60.45H0v-43H10v8a16,16,0,0,1,4.22-4.71,19.26,19.26,0,0,1,5.93-3,24.14,24.14,0,0,1,7.08-1,13.81,13.81,0,0,1,6.66,1.43,10,10,0,0,1,4,3.85,17.08,17.08,0,0,1,1.9,5.45,34.87,34.87,0,0,1,.54,6.14Z"/><path class="cls-1" d="M67.14,61.28a24.39,24.39,0,0,1-9.44-1.76,21.12,21.12,0,0,1-7.2-4.83,22,22,0,0,1-6.22-15.44A23,23,0,0,1,47.06,28,21.22,21.22,0,0,1,55,19.88a23.55,23.55,0,0,1,12.21-3.07A23,23,0,0,1,79.4,19.89,20.94,20.94,0,0,1,87.14,28a22.75,22.75,0,0,1,2.69,10.86c0,.66,0,1.33-.08,2s-.11,1.25-.17,1.68H56a12.29,12.29,0,0,0,2,5.67,10.52,10.52,0,0,0,4.14,3.68,12,12,0,0,0,5.42,1.25,12.77,12.77,0,0,0,6.26-1.61,8.57,8.57,0,0,0,4-4.26l9.53,2.65a18.12,18.12,0,0,1-4.52,5.87,21.4,21.4,0,0,1-6.91,4A25.39,25.39,0,0,1,67.14,61.28ZM55.8,35.53H78.49a12.78,12.78,0,0,0-1.87-5.63,10.77,10.77,0,0,0-4-3.72,11.56,11.56,0,0,0-5.55-1.34,11.15,11.15,0,0,0-5.43,1.34,10.81,10.81,0,0,0-4,3.72A12.65,12.65,0,0,0,55.8,35.53Z"/><path class="cls-1" d="M94.21,44.38V17.47H105.3V41.94q0,4.91,1.83,7.4a6.21,6.21,0,0,0,5.38,2.5,11.24,11.24,0,0,0,4.26-.85,12.25,12.25,0,0,0,3.9-2.56,14.54,14.54,0,0,0,3-4.3V17.47h11.09v30.6a3.8,3.8,0,0,0,.63,2.46,3,3,0,0,0,2,.9v9c-1.11.17-2,.29-2.78.37a16.9,16.9,0,0,1-2,.13,8,8,0,0,1-4.84-1.36,5.28,5.28,0,0,1-2.2-3.73l-.25-3.44a18.84,18.84,0,0,1-7.45,6.6,22.21,22.21,0,0,1-10,2.26q-6.7,0-10.18-4.31T94.21,44.38Z"/><path class="cls-1" d="M167.64,26.67a20.24,20.24,0,0,0-9,1.94,11.8,11.8,0,0,0-5.71,5.59V60.45H141.8v-43H152v8.86a19.76,19.76,0,0,1,5.88-7,14.32,14.32,0,0,1,7.54-2.81h1.41a3.89,3.89,0,0,1,.83.08Z"/><path class="cls-1" d="M170.62,47.78A11.83,11.83,0,0,1,173,40.46a15.06,15.06,0,0,1,6.58-4.87,25.5,25.5,0,0,1,9.69-1.72,39,39,0,0,1,5.55.41,19.09,19.09,0,0,1,4.88,1.33V33.3A8,8,0,0,0,197.24,27c-1.63-1.46-4-2.2-7.24-2.2a18.77,18.77,0,0,0-6.8,1.25,34.19,34.19,0,0,0-6.79,3.64l-3.56-7.29a35.59,35.59,0,0,1,8.82-4.22,31.62,31.62,0,0,1,9.48-1.41q9.28,0,14.45,4.57t5.18,13.06V48.08a3.84,3.84,0,0,0,.62,2.45,3,3,0,0,0,2,.9v9c-1,.17-1.89.3-2.69.42a15.23,15.23,0,0,1-2,.16,7.35,7.35,0,0,1-5-1.49,6.3,6.3,0,0,1-2.11-3.64l-.25-2.24a18.9,18.9,0,0,1-7,5.63,20,20,0,0,1-8.61,2A16.77,16.77,0,0,1,178,59.52a13.44,13.44,0,0,1-5.39-4.83A12.68,12.68,0,0,1,170.62,47.78Zm27,2.16A11.32,11.32,0,0,0,199.1,48a3.51,3.51,0,0,0,.58-1.78V41.94a22.94,22.94,0,0,0-4.3-1.25,23.91,23.91,0,0,0-4.39-.44,12.7,12.7,0,0,0-7.08,1.81,5.53,5.53,0,0,0-2.78,4.81,5.77,5.77,0,0,0,.91,3.07,6.71,6.71,0,0,0,2.66,2.34,9,9,0,0,0,4.14.88,13.4,13.4,0,0,0,4.88-.92A12.21,12.21,0,0,0,197.61,49.94Z"/><path class="cls-1" d="M217.05,0h11.1V46.69c0,2,.33,3.34,1,4a3.6,3.6,0,0,0,2.73,1,11.9,11.9,0,0,0,2.73-.33,13.2,13.2,0,0,0,2.49-.83L238.58,59a21.49,21.49,0,0,1-5.22,1.66,28.18,28.18,0,0,1-5.38.58q-5.22,0-8.07-2.78t-2.86-7.93Z"/><path class="cls-1" d="M269.89,58.3c-.94.39-2.07.83-3.4,1.32a26.49,26.49,0,0,1-4.26,1.2,22.93,22.93,0,0,1-4.6.46A14.55,14.55,0,0,1,252,60.21a8.84,8.84,0,0,1-4.1-3.4,11,11,0,0,1-1.53-6.11V26h-5.71V17.47h5.71V3.4h11.1V17.47h9.11V26h-9.11V46.93a4.11,4.11,0,0,0,1.24,3.18,4.3,4.3,0,0,0,2.9,1,10.07,10.07,0,0,0,3.39-.58c1.11-.38,2-.71,2.65-1Z"/><path class="cls-1" d="M272.7,47.78a11.9,11.9,0,0,1,2.36-7.32,15.09,15.09,0,0,1,6.59-4.87,25.41,25.41,0,0,1,9.68-1.72,38.81,38.81,0,0,1,5.55.41,19.06,19.06,0,0,1,4.89,1.33V33.3A8,8,0,0,0,299.33,27c-1.63-1.46-4.05-2.2-7.25-2.2a18.72,18.72,0,0,0-6.79,1.25,33.91,33.91,0,0,0-6.79,3.64l-3.56-7.29a35.59,35.59,0,0,1,8.82-4.22,31.62,31.62,0,0,1,9.48-1.41q9.27,0,14.45,4.57t5.18,13.06V48.08a3.78,3.78,0,0,0,.62,2.45,3,3,0,0,0,2,.9v9c-1,.17-1.9.3-2.7.42a15.1,15.1,0,0,1-2,.16,7.35,7.35,0,0,1-5-1.49,6.31,6.31,0,0,1-2.12-3.64l-.25-2.24a18.87,18.87,0,0,1-7,5.63,20,20,0,0,1-8.62,2A16.77,16.77,0,0,1,280,59.52a13.42,13.42,0,0,1-5.38-4.83A12.6,12.6,0,0,1,272.7,47.78Zm27,2.16A11.85,11.85,0,0,0,301.19,48a3.6,3.6,0,0,0,.58-1.78V41.94a23,23,0,0,0-4.31-1.25,23.83,23.83,0,0,0-4.39-.44A12.7,12.7,0,0,0,286,42.06a5.52,5.52,0,0,0-2.77,4.81,5.69,5.69,0,0,0,.91,3.07,6.68,6.68,0,0,0,2.65,2.34,9,9,0,0,0,4.14.88,13.42,13.42,0,0,0,4.89-.92A12.21,12.21,0,0,0,299.7,49.94Z"/><path class="cls-1" d="M319.13,0h11.1V46.69c0,2,.33,3.34,1,4a3.64,3.64,0,0,0,2.74,1,12,12,0,0,0,2.73-.33,12.86,12.86,0,0,0,2.48-.83L340.66,59a21.55,21.55,0,0,1-5.21,1.66,28.28,28.28,0,0,1-5.39.58q-5.21,0-8.07-2.78c-1.9-1.86-2.86-4.5-2.86-7.93Z"/><path class="cls-1" d="M374.11,60.45,361.44,41.88l-5.88,5.75V60.45H344.47V0h11.09V36.78L373,17.47H384.8L368.65,35.72,386,60.45Z"/><path class="cls-1" d="M408.41,61.28a31.12,31.12,0,0,1-10.6-1.82,24,24,0,0,1-8.7-5.38l4-7.21a29.81,29.81,0,0,0,7.66,4.64A19.75,19.75,0,0,0,408,53a10.3,10.3,0,0,0,5.17-1.12,3.62,3.62,0,0,0,1.95-3.35A2.89,2.89,0,0,0,414,46.12a9.82,9.82,0,0,0-3.1-1.52q-2-.65-4.93-1.47a75.48,75.48,0,0,1-8-3,11.79,11.79,0,0,1-4.85-3.72,9.62,9.62,0,0,1-1.61-5.76,12.24,12.24,0,0,1,2.19-7.32,14.4,14.4,0,0,1,6.13-4.78,22.83,22.83,0,0,1,9.23-1.72,26.3,26.3,0,0,1,8.78,1.45,21,21,0,0,1,7.54,4.68l-4.48,7a26.66,26.66,0,0,0-6.29-3.77,16.06,16.06,0,0,0-6-1.2,12.39,12.39,0,0,0-3.28.41,5.45,5.45,0,0,0-2.48,1.34,3.54,3.54,0,0,0-.95,2.65,3.2,3.2,0,0,0,.87,2.4,7.17,7.17,0,0,0,2.65,1.51c1.18.44,2.63.93,4.34,1.47a70.86,70.86,0,0,1,8.82,3A13.82,13.82,0,0,1,424,41.6a9.49,9.49,0,0,1,1.82,6.15,11.77,11.77,0,0,1-4.72,9.94Q416.36,61.29,408.41,61.28Z"/><rect class="cls-1" x="445.97" width="11.1" height="11.01" rx="5.51"/><rect class="cls-1" x="445.97" y="17.06" width="11.1" height="43.39"/><rect class="cls-2" x="429.74" y="49.56" width="11.1" height="11.01" rx="5.51"/><path class="cls-1" d="M484.12,61.28a24.62,24.62,0,0,1-9.52-1.76,20.58,20.58,0,0,1-7.16-4.87,22,22,0,0,1-4.52-7.13,22.86,22.86,0,0,1-1.57-8.43,23.1,23.1,0,0,1,1.57-8.52,22,22,0,0,1,4.52-7.13,20.72,20.72,0,0,1,7.16-4.87,24.62,24.62,0,0,1,9.52-1.76,24.33,24.33,0,0,1,9.49,1.76,21.4,21.4,0,0,1,7.16,4.87,21,21,0,0,1,4.51,7.13,23.71,23.71,0,0,1,1.53,8.52,23.46,23.46,0,0,1-1.53,8.43,21.38,21.38,0,0,1-4.47,7.13,20.67,20.67,0,0,1-7.16,4.87A24.64,24.64,0,0,1,484.12,61.28ZM472.78,39.09a14.16,14.16,0,0,0,1.49,6.62,11.38,11.38,0,0,0,4.06,4.51,10.61,10.61,0,0,0,5.79,1.62,10.29,10.29,0,0,0,5.72-1.67,12.1,12.1,0,0,0,4.1-4.54A13.93,13.93,0,0,0,495.47,39a14,14,0,0,0-1.53-6.59,11.74,11.74,0,0,0-4.1-4.54,10.86,10.86,0,0,0-11.51,0,11.57,11.57,0,0,0-4.06,4.55A14.1,14.1,0,0,0,472.78,39.09Z"/></svg>